<?xml version="1.0" encoding="UTF-8"?>
<svg xmlns="http://www.w3.org/2000/svg" style="display: none;">
  <!-- Development Services Icon -->
  <symbol id="icon-dev-services" viewBox="0 0 24 24">
    <polyline points="16 18 22 12 16 6"></polyline>
    <polyline points="8 6 2 12 8 18"></polyline>
    <line x1="12" y1="2" x2="12" y2="22"></line>
  </symbol>

  <!-- Consulting Icon -->
  <symbol id="icon-consulting" viewBox="0 0 24 24">
    <path d="M21 11.5a8.38 8.38 0 0 1-.9 3.8 8.5 8.5 0 0 1-7.6 4.7 8.38 8.38 0 0 1-3.8-.9L3 21l1.9-5.7a8.38 8.38 0 0 1-.9-3.8 8.5 8.5 0 0 1 4.7-7.6 8.38 8.38 0 0 1 3.8-.9h.5a8.48 8.48 0 0 1 8 8v.5z"></path>
  </symbol>

  <!-- Migration Icon -->
  <symbol id="icon-migration" viewBox="0 0 24 24">
    <path d="M12 19V5"></path>
    <path d="M5 12l7-7 7 7"></path>
    <path d="M5 19h14"></path>
  </symbol>

  <!-- Monitoring Icon -->
  <symbol id="icon-monitoring" viewBox="0 0 24 24">
    <rect x="2" y="3" width="20" height="14" rx="2" ry="2"></rect>
    <line x1="8" y1="21" x2="16" y2="21"></line>
    <line x1="12" y1="17" x2="12" y2="21"></line>
    <polyline points="7 8 12 13 17 8"></polyline>
  </symbol>

  <!-- DevOps Icon -->
  <symbol id="icon-devops" viewBox="0 0 24 24">
    <circle cx="12" cy="12" r="3"></circle>
    <path d="M19.4 15a1.65 1.65 0 0 0 .33 1.82l.06.06a2 2 0 0 1 0 2.83 2 2 0 0 1-2.83 0l-.06-.06a1.65 1.65 0 0 0-1.82-.33 1.65 1.65 0 0 0-1 1.51V21a2 2 0 0 1-2 2 2 2 0 0 1-2-2v-.09A1.65 1.65 0 0 0 9 19.4a1.65 1.65 0 0 0-1.82.33l-.06.06a2 2 0 0 1-2.83 0 2 2 0 0 1 0-2.83l.06-.06a1.65 1.65 0 0 0 .33-1.82 1.65 1.65 0 0 0-1.51-1H3a2 2 0 0 1-2-2 2 2 0 0 1 2-2h.09A1.65 1.65 0 0 0 4.6 9a1.65 1.65 0 0 0-.33-1.82l-.06-.06a2 2 0 0 1 0-2.83 2 2 0 0 1 2.83 0l.06.06a1.65 1.65 0 0 0 1.82.33H9a1.65 1.65 0 0 0 1-1.51V3a2 2 0 0 1 2-2 2 2 0 0 1 2 2v.09a1.65 1.65 0 0 0 1 1.51 1.65 1.65 0 0 0 1.82-.33l.06-.06a2 2 0 0 1 2.83 0 2 2 0 0 1 0 2.83l-.06.06a1.65 1.65 0 0 0-.33 1.82V9a1.65 1.65 0 0 0 1.51 1H21a2 2 0 0 1 2 2 2 2 0 0 1-2 2h-.09a1.65 1.65 0 0 0-1.51 1z"></path>
  </symbol>

  <!-- Linux Icon -->
  <symbol id="icon-linux" viewBox="0 0 24 24">
    <!-- Penguin body -->
    <ellipse cx="12" cy="14" rx="6" ry="8" fill="currentColor" opacity="0.9" />
    <!-- Penguin head -->
    <ellipse cx="12" cy="8" rx="5" ry="5" fill="currentColor" opacity="0.9" />
    <!-- White belly -->
    <ellipse cx="12" cy="14" rx="3.5" ry="6" fill="white" stroke="none" />
    <ellipse cx="12" cy="9" rx="3" ry="3" fill="white" stroke="none" />
    <!-- Eyes -->
    <circle cx="10.5" cy="7" r="0.8" fill="currentColor" stroke="none" />
    <circle cx="13.5" cy="7" r="0.8" fill="currentColor" stroke="none" />
    <!-- Beak -->
    <path d="M11.5 9L12 10L12.5 9" stroke="currentColor" stroke-width="1" />
    <!-- Feet -->
    <path d="M9 21L8 22M15 21L16 22" stroke="currentColor" stroke-width="1.5" />
    <!-- Wings -->
    <path d="M6 12C5 13 5 16 6 18M18 12C19 13 19 16 18 18" stroke="currentColor" stroke-width="1.5" />
  </symbol>
</svg> 